<?xml version="1.0" encoding="UTF-8" standalone="no"?>
<!-- Uploaded to: SVG Repo, www.svgrepo.com, Generator: SVG Repo Mixer Tools -->

<svg
   width="38"
   height="38"
   viewBox="0 0 44.84 44.84"
   class="icon"
   version="1.1"
   id="svg8"
   sodipodi:docname="logo.svg"
   inkscape:version="1.1.2 (b8e25be833, 2022-02-05)"
   xmlns:inkscape="http://www.inkscape.org/namespaces/inkscape"
   xmlns:sodipodi="http://sodipodi.sourceforge.net/DTD/sodipodi-0.dtd"
   xmlns="http://www.w3.org/2000/svg"
   xmlns:svg="http://www.w3.org/2000/svg">
  <defs
     id="defs12" />
  <sodipodi:namedview
     id="namedview10"
     pagecolor="#ffffff"
     bordercolor="#666666"
     borderopacity="1.0"
     inkscape:pageshadow="2"
     inkscape:pageopacity="0.0"
     inkscape:pagecheckerboard="0"
     showgrid="false"
     inkscape:zoom="1.03875"
     inkscape:cx="210.83032"
     inkscape:cy="299.39832"
     inkscape:window-width="1920"
     inkscape:window-height="1017"
     inkscape:window-x="-8"
     inkscape:window-y="-8"
     inkscape:window-maximized="1"
     inkscape:current-layer="svg8"
     fit-margin-top="0"
     fit-margin-left="0"
     fit-margin-right="0"
     fit-margin-bottom="0" />
  <path
     d="m 40.580314,23.062781 c 0.695186,0 0.695186,0.852587 0,0.852587 h -1.922899 c 0.01984,1.037907 0.01984,2.075839 0.01984,3.113739 0.579233,0.01861 1.158341,0.03695 1.737707,0.01861 0.694945,-0.01861 0.694945,0.834029 0,0.852544 -0.579366,0.01856 -1.158474,0.01856 -1.737707,-0.01857 0,0.796954 0,1.593926 0.02009,2.390897 0,1.464188 0.463363,3.92925 -2.085042,4.077523 -2.965569,0.185339 -6.023677,0.03691 -9.012254,0.03691 0,1.056497 0,2.094383 -0.01992,3.150766 h 1.575473 c 0.695002,0 0.695002,0.852578 0,0.852578 h -1.575406 c -0.02001,1.501303 -0.07002,2.984025 -0.115953,4.485276 0,0.240919 -0.231448,0.426345 -0.53266,0.426345 -2.594853,0.03625 -5.189631,0.01777 -7.784267,-0.05552 -0.648838,-0.01784 -1.459702,0.07411 -1.737657,-0.500373 -0.32431,-0.667201 -0.04868,-1.742206 -0.04868,-2.446515 V 35.29537 c -0.625522,-0.03693 -1.251011,-0.07411 -1.899916,-0.07411 -0.694845,0 -0.694845,-0.852527 0,-0.852527 0.625722,0 1.251303,0.01846 1.899916,0.07406 v -2.650394 c -0.602365,-0.03694 -1.181598,-0.05541 -1.784013,-0.03694 -0.694869,0.01869 -0.694869,-0.852575 0,-0.852575 0.602415,-0.01862 1.181648,0 1.784013,0.03697 v -2.650407 h -5.189345 c -1.320558,0 -2.8033516,-0.01866 -3.8690298,-0.722831 -0.903552,-0.611617 -1.2279878,-1.519813 -1.2973013,-2.446513 -0.092721,-0.852573 -0.049099,-1.705166 -0.019923,-2.576231 -0.509836,-0.03698 -1.0193719,-0.03698 -1.5291662,-0.03698 -0.6949611,0.01854 -0.6949611,-0.834029 0,-0.852558 0.5329016,-0.01852 1.0425709,0 1.5754642,0.03694 0,-0.18534 0,-0.352144 0.019923,-0.537479 0,-0.630171 0.01984,-1.260357 0.01984,-1.890508 H 5.241746 c -0.6956613,0 -0.6956613,-0.852571 0,-0.852571 h 1.8299362 c 0,-0.556004 0.01984,-1.112072 0.01984,-1.686608 0.01984,-0.982319 0.2550222,-1.909046 1.227846,-2.594786 0.9730489,-0.667256 2.2473428,-0.889646 3.4984628,-0.815511 1.11196,0.07405 2.502141,0.240964 3.104497,1.074968 0.694928,0.945281 0.41699,2.372401 0.41699,3.410285 l 0.07011,3.743935 c 0.625356,0 1.227912,0 1.853177,-0.01854 0.185541,0 0.949866,0.07407 1.135516,0.01854 -0.04868,-0.03694 0,-0.444831 0,-0.500429 V 17.558151 13.88836 c 0,-0.982251 -0.13916,-2.038708 0.555859,-2.909847 1.390023,-1.6865999 3.45209,-2.0201694 5.791871,-1.6865999 2.108316,0.3151053 3.683646,2.0758039 4.054213,3.7068019 v 0.129783 c 0.01984,0.03695 0.01984,0.09266 0.01984,0.148256 0.01992,2.928396 0.01992,5.856823 0,8.766674 v 4.39259 c 0,0.333622 -0.277929,1.686612 0.09273,1.946097 0.277988,0.203881 1.621712,0.07406 1.992413,0.01866 0.949866,-0.129754 0.741392,-1.056461 0.787765,-1.705156 0.04793,-0.648683 0.07002,-1.315908 0.07002,-1.964608 0,-1.204721 -0.07002,-2.409464 -0.11582,-3.614179 -0.04852,-1.167663 -0.01992,-2.335312 0.01984,-3.502946 0.02001,-0.871107 -0.07011,-1.76076 0.07002,-2.613338 0.254906,-1.501222 2.108258,-2.520657 3.938477,-2.224081 0.973099,0.148308 1.992471,0.574575 2.432635,1.334456 0.324336,0.556044 0.301137,1.278851 0.347568,1.890466 0,0.14827 0.01992,0.296575 0.01992,0.444857 h 1.992446 c 0.695019,0 0.695019,0.852564 0,0.852564 h -1.969214 c 0.0481,0.759878 0.07011,1.519782 0.09271,2.279704 h 1.390039 c 0.695002,0 0.695002,0.85258 0,0.85258 h -1.366874 l 0.07002,2.576208 c 0.579175,0.0554 1.227855,0.0554 1.876576,0.0554 z m -3.173853,10.008461 c 0.301137,-0.463343 0.208475,-1.112031 0.208475,-1.612459 v -1.983169 c 0,-1.278837 -0.01984,-2.557705 -0.04835,-3.818059 -0.01984,-2.261133 -0.09268,-4.540839 -0.162218,-6.801991 -0.01984,-1.000848 -0.04818,-1.983194 -0.11582,-2.984029 -0.07002,-0.926696 -0.162076,-1.686585 -1.390022,-2.057309 -1.274227,-0.389235 -2.78012,0.05539 -3.150695,1.186217 -0.278054,0.834048 -0.07011,1.834858 -0.09275,2.705993 -0.07002,2.261131 0.09275,4.522345 0.115928,6.783486 0.02001,1.204713 -0.01976,2.409437 -0.231848,3.595627 -0.09255,0.630164 -0.231465,1.112064 -1.111826,1.241801 -0.741484,0.09267 -2.154681,0.203895 -2.872907,0 -0.880362,-0.240941 -0.880362,-0.852576 -0.880362,-1.482745 -0.01984,-4.837407 0.01992,-9.674812 -0.01984,-14.512221 v -0.03696 c -0.20845,-0.94522 -0.926726,-1.909001 -1.783847,-2.576251 -0.834105,-0.667262 -2.733813,-0.8155127 -3.845898,-0.61161 -1.250928,0.240939 -2.478874,1.260282 -2.617835,2.279706 -0.139035,1.000828 -0.01992,2.057293 -0.01992,3.058139 v 3.169325 c 0,1.00083 0.185325,2.112899 0,3.095209 -0.09274,0.463343 -0.347576,0.685755 -0.926751,0.741374 -1.181523,0.111188 -2.478882,0.01852 -3.660431,0 -0.347534,0 -0.509744,-0.222402 -0.509744,-0.426301 0,-0.03695 -0.01992,-0.07406 -0.01992,-0.111189 L 14.19927,17.85485 c 0,-0.611648 0,-1.223285 -0.02009,-1.853432 -0.01984,-0.796981 -0.254855,-1.39007 -1.274228,-1.630999 -1.482776,-0.333645 -3.6141241,-0.277999 -4.4713615,0.945211 -0.4169733,0.611648 -0.3243357,1.390069 -0.3474764,2.057316 0,0.667241 -0.01984,1.315928 -0.01984,1.983158 l -0.070189,4.133108 c -0.01984,1.056483 -0.2316565,2.502131 0.7876487,3.317619 1.0194053,0.815518 2.8033022,0.630166 4.1238442,0.64872 h 4.749375 c 0.04818,0 0.115878,0 0.162176,0.01861 0.278005,0 0.556051,0.129716 0.556051,0.407729 v 13.7709 c 0,0.203849 -0.04835,0.463347 0,0.667245 v 0.07405 c 0.01984,0 0.0481,0 0.09259,0.0177 0.486529,0.09273 1.135292,0.03632 1.644887,0.03632 2.085125,0.0554 4.147017,0.0554 6.232159,0.03625 0.09261,-2.835771 0.138961,-5.671518 0.115803,-8.507225 0,-0.240938 0.254814,-0.426284 0.532802,-0.426284 1.73764,0 3.498338,-0.01865 5.235895,-0.01865 h 2.525247 c 0.834089,-0.0186 2.224153,0.185367 2.664367,-0.463338 z"
     fill="#056137"
     id="path2"
     style="stroke-width:0.0404744" />
  <path
     d="m 37.614936,31.458783 c 0,0.500428 0.09266,1.149116 -0.208475,1.612459 -0.440147,0.648695 -1.830278,0.444823 -2.617885,0.444823 h -2.525297 c -1.737557,0 -3.498421,0 -5.235887,0.01866 -0.277946,0 -0.532818,0.203896 -0.532818,0.426289 0.02001,2.835661 -0.02001,5.671477 -0.115879,8.507138 -2.085108,0.01784 -4.147001,0.01784 -6.232068,-0.03619 -0.509678,-0.01784 -1.135158,0.05538 -1.644869,-0.03639 -0.04827,0 -0.07011,-0.01777 -0.09259,-0.01777 v -0.07425 c -0.04843,-0.203865 0,-0.44479 0,-0.667143 V 38.818237 27.86467 c 0,-0.277999 -0.278196,-0.426286 -0.556167,-0.407735 -0.04843,-0.01863 -0.09261,-0.01863 -0.162268,-0.01863 h -4.749206 c -1.320542,0 -3.1044633,0.185362 -4.1237851,-0.648684 C 7.7983366,25.955596 8.0067524,24.528445 8.0300181,23.47201 l 0.070105,-4.133119 c 0,-0.667214 0.019923,-1.31594 0.019923,-1.983142 0,-0.667221 -0.070022,-1.445667 0.3474348,-2.057289 0.8340383,-1.241796 2.9654701,-1.278864 4.4714031,-0.945281 1.019331,0.222426 1.251054,0.834076 1.274152,1.631026 0.01984,0.611604 0.01984,1.223252 0.01984,1.853396 l 0.07019,4.058988 c 0,0.037 0,0.07409 0.01984,0.111222 0,0.203866 0.185617,0.426288 0.50962,0.426288 1.181798,0.01852 2.479158,0.111215 3.660706,0 0.579216,-0.05539 0.833963,-0.278003 0.926793,-0.741361 0.185141,-0.982312 0,-2.094356 0,-3.095206 v -3.169353 c 0,-1.00086 -0.11602,-2.057275 0.01992,-3.058145 0.13941,-1.019343 1.36689,-2.03875 2.61796,-2.27972 1.089269,-0.2038351 3.011959,-0.05539 3.846147,0.611656 0.857263,0.667207 1.575048,1.630988 1.783922,2.576267 v 0.03696 c 0.04818,4.83742 -0.02001,9.674829 0.01984,14.512255 0,0.630174 0,1.223285 0.880378,1.482735 0.718277,0.203899 2.131389,0.09269 2.872799,0 0.880403,-0.12975 0.996272,-0.611613 1.112059,-1.24177 0.185384,-1.186196 0.231623,-2.3909 0.231623,-3.595636 -0.01992,-2.261186 -0.185267,-4.522322 -0.115803,-6.78351 0.01984,-0.852581 -0.18535,-1.853384 0.09273,-2.705961 0.370651,-1.130643 1.853352,-1.575403 3.150728,-1.186193 1.227871,0.370658 1.320601,1.130548 1.390089,2.057265 0.07011,1.000875 0.09266,1.983134 0.115812,2.983997 0.07002,2.261184 0.115912,4.540878 0.162143,6.802072 0.02001,1.278846 0.02001,2.557706 0.0486,3.818023 -0.0486,0.667221 -0.0486,1.334465 -0.0486,2.001696 z m -3.289723,-7.13568 c 0.02009,0.556034 1.088828,0.556034 1.065745,0 -0.115886,-2.798643 -0.139019,-5.615826 -0.0701,-8.414503 0.01984,-0.556031 -1.065678,-0.556031 -1.065678,0 -0.07002,2.798677 -0.04852,5.59733 0.07011,8.414503 z M 23.181611,12.553963 c 0,-0.556087 -1.065795,-0.556087 -1.065795,0 l -0.138927,8.933432 c 0,0.556027 1.065687,0.556027 1.065687,0 z M 10.11501,21.654217 c 0.02017,0.555998 1.088944,0.555998 1.065786,0 -0.07011,-1.575437 -0.09269,-3.150861 -0.04852,-4.726224 0.01984,-0.55604 -1.06557,-0.55604 -1.06557,0 -0.02017,1.575363 -0.02017,3.150787 0.0481,4.726224 z"
     fill="#3b9548"
     id="path4"
     style="stroke-width:0.0404744" />
  <path
     d="m 35.390958,24.323103 c 0.01992,0.556034 -1.042546,0.556034 -1.065745,0 -0.11597,-2.798643 -0.139011,-5.615826 -0.0701,-8.414503 0.01992,-0.556031 1.08882,-0.556031 1.065679,0 -0.07002,2.798677 -0.04801,5.59733 0.0701,8.414503 z M 22.115816,12.553963 c 0,-0.556087 1.089044,-0.556087 1.065795,0 l -0.139035,8.933432 c 0,0.556027 -1.088869,0.556027 -1.065687,0 z m -10.911862,9.100254 c 0.01992,0.555998 -1.042488,0.555998 -1.065787,0 -0.06994,-1.575437 -0.0926,-3.150861 -0.04826,-4.726224 0.02001,-0.55604 1.088827,-0.55604 1.065628,0 -0.04827,1.575363 -0.01984,3.150787 0.04843,4.726224 z"
     fill="#056137"
     id="path6"
     style="stroke-width:0.0404744" />
</svg>
